# xmcd
#
# Track frame offsets: 
#        150
#        20516
#        33126
#        43719
#        56175
#        64682
#        75887
#        90836
#        105662
#        120172
#        133835
#        146717
#        157949
#        183888
#        198013
#
# Disc length: 2802 seconds
#
# Revision: 1
# Processed by: cddbd v1.5.2PL0 Copyright (c) Steve Scherf et al.
# Submitted via: ExactAudioCopy v0.99pb5
#
DISCID=b10af00f
DTITLE=The Animals - The Best of the Animals
DYEAR=1987
DGENRE=Blues
TTITLE0=House Of The Rising Sun
TTITLE1=I'm Crying
TTITLE2=Baby Let Me Take You Home
TTITLE3=Around and Around
TTITLE4=Talkin' Bout You
TTITLE5=Don't Let Me Be Misunderstood
TTITLE6=Boom Boom
TTITLE7=Dimples
TTITLE8=We Gotta Get Out Of This Place
TTITLE9=I'm In Love Again
TTITLE10=Bury My Body
TTITLE11=Gonna Send You Back To Walker
TTITLE12=Story Of Bo Diddley
TTITLE13=It's My Life
TTITLE14=Bring It On Home To Me
EXTD=Original 60's Master Recordings
EXTT0=
EXTT1=
EXTT2=
EXTT3=
EXTT4=
EXTT5=
EXTT6=
EXTT7=
EXTT8=
EXTT9=
EXTT10=
EXTT11=
EXTT12=
EXTT13=
EXTT14=
PLAYORDER=
